<svg xmlns="http://www.w3.org/2000/svg" xmlns:xlink="http://www.w3.org/1999/xlink" width="84" height="84" viewBox="0 0 84 84">
    <defs>
        <circle id="a" cx="42" cy="42" r="42"/>
        <path id="c" d="M0 .329h55.565v34.04H0z"/>
    </defs>
    <g fill="none" fill-rule="evenodd">
        <mask id="b" fill="#fff">
            <use xlink:href="#a"/>
        </mask>
        <use fill="#00ADD2" opacity=".844" xlink:href="#a"/>
        <g mask="url(#b)">
            <path fill="#FFAED1" d="M46.59 45.91s-12.158 4.467-16.125 14.755c-3.968 10.287-1.361 17.398-1.361 17.398L53.47 57.917 46.589 45.91z"/>
            <path fill="#26546C" d="M76.572 45.157c-11.622-4.988-27.47-.7-34.578 2.01-1.393 2.891 4.125 15.94 4.125 15.94s-1.637 24.804-1.593 32.033c11.662 10.052 36.87 2.592 41.789-.47-3.568-13.387-7.934-27.225-7.934-27.225.221-1.275.76-2.644 1.436-4.037l1.435.771 8.82-8.478c-7.156-8.419-11.78-10.15-13.414-10.505z"/>
            <path fill="#FFAED1" d="M65.217 35.21l2.58 7.644c.008 1.11-6.023 4.18-7.792 2.776-.516-.41-.371-1.473.116-2.625l2.906-6.27 2.19-1.525z"/>
            <path fill="#082534" d="M60.457 24.782c2.319 1.42 2.915 4.17 2.915 4.17s2.89.583 2.535 2.84c-.357 2.259-.448 6.156-3.609 6.159-3.16.004-4.408-2.817-4.408-2.817s-4.521-2.4-4.695-6.555c-.085-2.053 2.292-4.46 4.95-4.46.765 0 1.552.199 2.312.663"/>
            <path fill="#C96F96" d="M62.444 37.995c.823-.143 1.631-.456 2.423-.938.258 1.57-.186 2.842-1.334 3.817a5.142 5.142 0 0 1-2.987 1.215l1.898-4.094z"/>
            <path fill="#FFAED1" d="M62.884 32.018l1.806 4.295c.478 1.46-.353 3.018-1.879 3.51-1.218.39-2.021.441-3.62.355-1.33-.072-2.088-1.235-2.199-2.879-.14-2.132.367-4.134.7-5.192.764-2.409 3.798-2.807 5.192-.09"/>
            <path fill="#082534" d="M63.734 35.396c-.464 1.136-1.71.62-1.107-.476 1.21-2.202-.479-4.013-.479-4.013s1.528.75 2.13 1.198c.604.445-.08 2.151-.544 3.29z"/>
            <path fill="#FFAED1" d="M63.459 34.612c.042-.282.042-.567.024-.853-.034-.542.042-1.355.879-1.01 1.216.502 1.238 3.398-.1 3.702-.994.225-.912-1.127-.803-1.84"/>
            <path fill="#FFF" d="M60.701 35.796s-1.028.32-2.513.234c0 0 .019.954.624 1.247.603.294 1.613-.323 1.89-1.481"/>
            <path fill="#C96F96" d="M63.84 38.345c.296-.27.603-.858.92-1.767.455 1.454-.494 3.006-1.951 3.494-1.163.391-1.93.443-3.456.355-.774-.044-1.346-.494-1.697-1.207.254.023.775-.28 1.2-.393 1.395-.37 2.603 1.68 4.984-.482z"/>
            <g fill="#FFAED1">
                <path d="M60.206 55.927s-.256-2.442-1.147-2.46c-.89-.02-1.425 1.873-.752 3.922.672 2.05 1.899-1.462 1.899-1.462"/>
            </g>
            <g fill="#082534">
                <path d="M56.391 47.65l2.592-.452a.645.645 0 0 1 .748.52l1.016 5.723a.64.64 0 0 1-.524.74l-2.592.451a.645.645 0 0 1-.748-.519l-1.016-5.724a.641.641 0 0 1 .524-.74"/>
            </g>
            <g fill="#FFAED1">
                <path d="M57.04 54.81s-2.53 21.278-14.557 23.158c-11.318 1.77-11.79 2.35-13.135.705-1.345-1.645 1.504-16.374 4.51-18.96 3.007-2.585 21.76-5.953 21.76-5.953l1.423 1.05z"/>
                <path d="M57.04 54.81s1.296-1.632 1.676-2.551c1.107-2.678-2.174-.072-2.174-.072l-.139-.782s-.817 1.293-1.818 2.545l2.456.86z"/>
            </g>
            <g fill="#FFAED1">
                <path d="M84.551 50.025s12.897 9.622 15.11 21.675c2.744 14.939-27.112 20.58-41.354-14.31l1.899-1.463 17.934 6.58s4.396-11.425 6.411-12.482"/>
            </g>
            <g>
                <g fill="#085E70">
                    <path d="M37.157 46.127s14.54-13.354 3.383-22.477c-11.159-9.125-18.823-2.523-22.995 2.136-4.172 4.66-9.12 8.25-15.234 6.212-6.112-2.04-7.694-4.957-12.904-6.115-11.352-2.525-14.845 2.815-14.845 2.815s-.115 2.127.099 5.265c.036.535 4.462 1.87 4.462 1.87s-4.224.757-4.163 1.248c.305 2.437.816 5.172 1.669 7.875.166.527 3.4 1.236 3.4 1.236s-2.194 2.032-1.801 2.853c1.108 2.311 2.544 4.458 4.404 6.2.306.286 3.735-1.276 3.735-1.276s-2.217 2.552-1.935 2.775c3.73 2.918 7.692 5.29 19.05 4.57 12.22-.778 33.675-15.187 33.675-15.187"/>
                    <path d="M-25.438 28.697s3.336-5.089 14.066-2.975c2.382 8.504 11.273 22.763 29.305 16.94C31.587 38.252 38.49 29.64 41.526 24.53c9.262 9.078-4.369 21.596-4.369 21.596S15.702 60.537 3.482 61.313c-11.358.72-15.32-1.65-19.05-4.57-.282-.222 1.935-2.775 1.935-2.775s-3.429 1.563-3.735 1.277c-1.86-1.742-3.296-3.889-4.404-6.2-.393-.82 1.8-2.854 1.8-2.854s-3.233-.709-3.4-1.236c-.852-2.702-1.363-5.438-1.668-7.875-.06-.49 4.163-1.246 4.163-1.246s-4.426-1.337-4.462-1.872c-.214-3.138-.099-5.265-.099-5.265"/>
                </g>
                <path fill="#FFAEFF" d="M42.935 49.341c5.82 6.468-3.652 10.588.612 22.941 2.103 6.097 11.181 14.782 15.005 25.464 7.134 19.93-2.077 54.3-11.156 79.832-5.71 16.241-11.235 28.903-12.61 31.999-.509 1.592-.939 3.387-.433 4.164.412.634 1.615 1.106 3.275 1.781.783.66 1.546 1.51.7 1.772-1.45.452-9.955.457-10.752-.903a3.675 3.675 0 0 0-.985-1.096c1.136-1.617 1.572-4.867 1.168-8.15-1.087-9.976-3.603-40.998 5.367-54.726 6.907-10.568 4.239-29.907 2.895-35.208l-.024-.095c-1.7 4.705-11.631 28.775-39.056 36.061l-.658.17-.203.052c-12.126 3.061-27.615 2.799-47.328-3.735-1.938-.352-4.894-.823-5.035-.581-.095.162-.543 2.164-1.142 3.824-.521.774-1.22 1.555-1.566.837-.594-1.23-1.616-8.776-.446-9.65a3.37 3.37 0 0 0 .902-1.007c1.265.694 4.543.527 7.183-.08 6.343-2.759 23.273-8.27 40.412-6.528 2.971.303 6.959-3.017 10.775-8.048l.024.028c4.851-6.394 9.001-15.199 8.913-21.556 3.423-7.514 4.541-16.613 10.272-23.371 3.647-4.425 5.8-7.931 6.577-11.764 1.655-8.164-9.442-17.818-3.335-24.123 6.757-6.976 12.912-6.902 20.65 1.696zm-6.663 66.974s-.025.081-.077.235c.044-.002.093-.008.145-.014a5.619 5.619 0 0 0-.068-.22z"/>
                <path fill="#00ADD2" d="M8.173 106.697c1.59-5.957 1.496-11.181 3.904-16.188 1.783-4.058 3.869-6.46 6.386-9.33 2.113-2.41 4.066-4.42 5.319-6.503a11.08 11.08 0 0 0 .3-.525c4.29 1.514 12.442 3.612 20.668 1.562.212.35.435.704.668 1.066l.043.065c1.237 1.91 2.753 3.984 4.334 6.22 2.91 4.113 5.72 8.354 7.633 13.033.196.48.387.966.564 1.456 1.507 4.201 6.13 25.613-.13 43.556-7.679 1.284-50.457-3.322-58.512-13.017.198-1.15 7.232-15.438 8.823-21.395z"/>
                <g fill="#FFF">
                    <path d="M21.965 47.622c6.76-6.943 13.706-6.753 21.02 1.8 5.68 6.641-4.016 10.428.249 22.725.44 1.266 1.185 2.647 2.123 4.133-4.047 1.918-18.803 4.975-28.452.049 3.762-1.416 5.012-4.823 5.32-6.33 1.654-8.128-6.37-16.1-.26-22.377z"/>
                    <path d="M-12.58 91.745l3.663 5.105A3977.05 3977.05 0 0 0 5.406 83.473c5.026-4.722 13.098-12.7 16.765-18.356 6.255-9.649 4.568-21.955-.396-17.557C18.17 50.754 6.718 65.482-12.58 91.745z"/>
                </g>
                <path fill="#FFAED1" d="M30.828 36.633l.421 6.917c.074 1.138 3.146 3.859 4.87 2.29.504-.461-.314-1.974-.906-3.118l-1.817-5.84-2.568-.249z"/>
                <path fill="#FFAED1" d="M30.46 32.064l-.223 2.663c-.177 2.112 1.308 4.086 3.415 4.305 1.946.203 3.723-1.036 3.831-3.483.097-2.177-1.569-3.928-2.193-4.863-1.424-2.134-4.35-1.666-4.83 1.378"/>
                <path fill="#C96F96" d="M37.486 35.544c0 .04.003.079 0 .12-.1 2.28-1.619 3.514-3.37 3.51l.344 1.09C33.01 39.944 31.434 38 31.434 38l.013-.002a4.062 4.062 0 0 1-.619-.875c.49.405.998.682 1.474.863.142.022.285.069.429.138.452.128.855.168 1.158.155.778-.032 2.136-.447 2.67-.97.472-.464.848-1.528.927-1.764z"/>
                <path fill="#FFAED1" d="M30.743 34.24a3.583 3.583 0 0 1-.431-.615c-.237-.416-.687-.976-1.133-.324-.65.948.736 3.088 1.865 2.675.84-.307.123-1.263-.3-1.735"/>
                <path fill="#FFF" d="M37.484 35.084s.059.421-.316.584c-.226.096-1.057.213-1.497-.183 0 0 .97.058 1.813-.4"/>
                <g fill="#22BFD4">
                    <path d="M27.835 43.482c-.525 1.562 5.235 4.649 5.235 4.649-.149-1.053.745-1.802 1.996-1.816-.7-.06-2.294-.875-3.264-2.191-.401-.542-.522-1.149-.568-2.045 0 0-2.968.122-3.399 1.403z"/>
                    <path d="M35.005 42.08c.606 0 2.255.654 3.01 2.723.274.677-.271 2.63-.24 2.723-.403-1.06-1.862-1.244-2.71-1.21 1.056-.459 1.136-1.892.606-2.421-.403-.404-.625-1.009-.666-1.816z"/>
                </g>
            </g>
        </g>
    </g>
</svg>
