<svg xmlns="http://www.w3.org/2000/svg" width="293" height="195" viewBox="0 0 293 195">
    <g fill="none" fill-rule="evenodd">
        <ellipse cx="146.5" cy="175" fill="#F3F3F3" rx="146.5" ry="20"/>
        <path fill="#FFAED1" d="M203.708 54.328c4.162.192 15.646 3.052 17.31 3.114 1.364.724 2.62 5.162 4.906 13.004C231.457 89.41 227 167.7 227 169l-3.32-1.69s-14.751-61.823-14.88-62.01c-2.282 6.71-5.194 48.766-7.455 60.658a3.062 3.062 0 0 1-.056.24l.025-.002s.418 1.591.508 1.766c-.774.83-3.436 1.23-4.66.926-.836-.208-1.1-.743.167-.953.39-.065.753-.155 1.072-.249l-.001.014c-1.152-11.64-15.062-78.875-6.02-96.636 3.563-7.001 9.897-16.128 11.328-16.736z"/>
        <path fill="#00ADD2" d="M230.9 105.3c0-10.443 1.089-38.309-6.5-42.9-.478-.29-.911-.29-1.3 0-7.372.7-12.139 1.133-14.3 1.3-2.485.192-6.385-.242-11.7-1.3-1.522 1.47-2.389 2.336-2.6 2.6-5.2 6.5-7.8 27.104-7.8 39v5.2h44.2v-3.9z"/>
        <path fill="#082534" d="M192.513 170.516c-.033-1.51 3.029-2.19 4.973-2.609-.524.317-1.16.774-.324.98 1.223.304 3.885-.096 4.661-.926.308.606.398 1.45.4 2.03.002.75-9.695 1.165-9.71.525M232.345 170.799c.031-1.454-2.918-2.111-4.794-2.515.505.306 1.117.745.312.947-1.178.29-3.744-.094-4.491-.893-.298.583-.383 1.396-.387 1.956-.002.721 9.348 1.123 9.36.505"/>
        <path fill="#FFAED1" d="M227.863 169.23c.805-.2 1.06-.716-.16-.92a9.533 9.533 0 0 1-2.168-.648c-.511-.22-.688-.988-.688-.988l-.984-.038s-.405 1.533-.493 1.702c.749.798 3.316 1.183 4.493.892"/>
        <g>
            <path fill="#EAE8E8" d="M183.503 67.026c-2.532-.309-4.527-2.44-4.527-2.44L194.5 33.8c.262.577 2.932.914 3.778 9.035.628 6.053-7.965 25.02-14.775 24.19z"/>
            <path fill="#EAE8E8" d="M210.82 28.6h.41c4.985.037 8.71.892 11.34 2.434.099.057.19.126.276.205l.01-.01s.01.015.033.044l.022.028c.113.115.216.25.308.404 1.94 2.595 11.042 15.248 11.083 24.656l-.045-.16c2.08 7.116-2.022 25.994-8.83 26.956-2.532.359-4.988-1.634-4.988-1.634l5.522-22.972.006-.014.038-.08-3.585-10.131a113.996 113.996 0 0 0-.62 4.974c-.454 4.683 1.571 8.385 2.329 9.064l.007.006c-1.127.103-5.72 1.097-12.329 1.317l-.407.013c-.453.01-16.126.058-15.6-1.3 1.53-3.946 3.093-19.813-1.3-28.6-1.3-2.6 15.718-5.196 15.718-5.196h.042l.56-.004h.41zm13.58 33.8c-.02.101-.102.1-.223.004l-.04-.034.06-.004c.14-.009.21 0 .203.034z"/>
            <path fill="#FFAED1" d="M220.576 78.248s-3.411 1.186-3.318 2.403c.094 1.214.19 3.205.708 3.288.517.083.416-1.379.416-1.379s.834.978 1.052 1.096c.218.117.345-.64.345-.64s.21.305.645.197c.433-.108-.202-1.015-.137-1.57.066-.553 1.672-1.885 1.855-2.995.07-.41-.64-.772-1.566-.4"/>
        </g>
        <g>
            <path fill="#085E70" d="M209.787 7.916l-.04.03c2.042 2.34 2.946 6.171 1.621 9.793-2.187 5.978-5.476 5.306-7.797 5.306-6.187 0-7.84-4.912-7.769-11.043.072-6.131 6.068-5.277 6.068-5.277a7.075 7.075 0 0 1 1.747-.783c-.152-.864-.595-4.575 2.761-5.808 3.25-1.193 5.66 5.916 3.41 7.782z"/>
            <path fill="#FFAED1" d="M206.65 13.814l.955 1.916c.045-.48.277-.87.989-.642 1.457.47 1.82 3.74.458 4.469.039.405.037.812-.004 1.212l2.868 8.656c.527 1.61-2.114 7.029-5.3 5.798-.933-.36-.663-2.893-.495-4.793l-.42-4.968c-2.499 1.095-5.406.272-6.837-2.9a6.43 6.43 0 0 1-.461-1.491c-1.16-.75-1.699-3.242-.682-4.099.399-.336.695-.305.913-.111.207-.91.45-1.699.571-2.277.789-3.756 5.096-4.733 7.446-.77z"/>
            <path fill="#FFF" d="M204.706 20.273s-1.506.62-3.753.677c0 0 .78 1.504 1.727 1.875.946.371 1.759-.75 2.026-2.552"/>
            <path fill="#C96F96" d="M205.372 24.154c-1.114.395-3.253.588-4.293.163-.922-.376-2.038-1.639-2.28-1.922.022.055.04.111.065.166 1.506 3.34 4.65 4.076 7.23 2.712 1.721-.91 2.743-2.616 2.946-4.454-1.07 1.935-2.667 2.98-3.668 3.335"/>
            <path fill="#085E70" d="M197.909 13.938s4.212 2.474 6.319 2.779l-.548-1.696s4.015 1.93 5.03 1.696c1.016-.235 1.295-5.396-1.719-6.544-3.013-1.147-10.507-.862-9.082 3.765"/>
        </g>
        <g>
            <path fill="#26546C" d="M174.034 172.098h2.321l.112-53.383h-2.319zM146.415 172.098h2.321l.364-52.027h-2.321zM139.944 172.226h2.319v-55.12h-2.32z"/>
            <path fill="#AACBE8" d="M138.783 172.226h1.16v-55.12h-1.16z"/>
            <path fill="#26546C" d="M117.827 171.833h2.321v-55.12h-2.321z"/>
            <path fill="#26546C" d="M113.744 120.69h37.852v-4.63h-37.852z"/>
            <path fill="#8DB7C0" d="M139.272 116.06h33.544l14.462-56.064h-32.762z"/>
            <path fill="#021621" d="M187.715 59.998l-11.298 60.693h-33.093v-4.63h29.492l10.77-56.05z"/>
            <g>
                <path fill="#082534" d="M98.093 169.015c.95.229.72.703 1.3 0 .25.497-.3 2.964-.286 3.447.01.385-7.06 4.027-9.133 4.023-1.036-.003-3.044-.534-3.696-1.697-.651-1.16.053-2.952 0-3.174-.402-1.674 11.166-2.755 11.815-2.6z"/>
                <path fill="#3B2B5B" d="M94.085 171.625c-.65-.156-.26-.541.137-.816.836-.293 1.54-.505 1.693-.582.406-.2.508-.584.508-.584l.424-.109s.745 1.09.815 1.234c-.58.703-2.627 1.086-3.577.857"/>
                <path fill="#082534" d="M128.185 170.233c-.396.275 1.901.705 2.484 0 .25.497.337 1.196.35 1.679.008.309-4.336 7.688-6.076 7.808-.838.058-3.047.217-4.795-.836-1.923-1.158-1.087-3.576-1.16-3.884-.402-1.672 7.897-3.467 9.197-4.767z"/>
                <path fill="#00ADD2" d="M153.679 104.085c.973 12.255-30.722 12.628-30.722 12.628s-20.328 46.115-23.323 53.052c0 0-4.383.501-4.264-.844.778-8.763 7.615-41.103 13.826-58.912 3.407-9.768 26.69-14.43 26.69-14.43l4.766-9.917s6.393 1.67 13.505 1.78c2.209 8.352-1.188 7.728-.478 16.643z"/>
                <path fill="#0499B8" d="M169.684 108.91c-1.38 6.463-10.273 7.083-18.087 7.15-6.54.056-12.233.555-12.233.555s-7.997 45.593-8.41 53.206c-.115 2.132-3.233 2.58-3.946.035-1.964-7.02.7-30.758-2.094-54.653-1.5-12.82 26.181-16.445 26.181-16.445l3.062-11.315s8.179-.776 15.29-.666c-.237 12.882 1.802 14.812.237 22.134z"/>
            </g>
            <g>
                <path fill="#FFAED1" d="M138.886 79.735c0-.002-.004-.002-.006-.004.014-.083-2.573-.002-3.671.335l-.036.014c-.21-.01-.424 0-.624.007-.016 0-.033.004-.05.004l-.16-.002c-.279 0-1.04.027-1.067.033-.314.065-.54.337-.78.632-.177.167-.5.67-.42.745.227.214 1.171-.728 1.24-.757.174.04.472.017.682.019-.192.133-.385.264-.566.416-.272.189-.56.44-.815.653-.017.016 2.795 0 4.068.012.058 0 .934-.376 1.417-.511.353-.1.765-.15 1.027-.425a.066.066 0 0 0 .021-.043c.01-.015.027-.017.03-.038.003-.362-.12-.77-.29-1.09"/>
                <path fill="#26546C" d="M154.158 50.103c.131.008.254.019.37.031 1.462.01 3.095.07 4.92.2.515.037 1.275.118 2.197.262.164-.265.301-.469.347-.462 1.35.206 3.63 1.08 5.691 1.96 1.442.505 2.908 1.143 4.27 1.945l.206.1.031.016-.002.025c1.213.737 2.337 1.607 3.281 2.634 1.826 1.982-6.317 29.79-5.913 31.493l-.075.061-.053.741.853 11.032-5.901-.85a7.664 7.664 0 0 1-.69-.152c-4.022.28-10.593-.466-21.19-2.939a6.024 6.024 0 0 1-1.15-.382c-.151.002-.303 0-.456-.007l-5.008-.231 4.596-10.947.87-17.36c-.178.407-.287.608-.302.538-1.047 3.347-3.422 6.581-5.22 10.086a2.99 2.99 0 0 1-.43.642c-.153.209-.395.4-.743.566-3.918 1.872-8.118 2.652-14.106 4.82-5.882 2.13-15.359-1.22-15.359-1.22s2.126-7.092 5.57-7.698c3.097-.544 16.796-1.663 19.513-1.882 1.68-3.899 5.37-12.403 6.708-15.005.81-1.574 1.841-3.259 1.841-3.259.936-1.428 2.924-3.635 6.582-4.068 1.489-.212 6.281-.854 8.752-.69z"/>
                <path fill="#26546C" d="M171.632 53.855c3.097 1.59 5.71 4.016 5.693 9.312-.019 6.32-2.072 18.088-7.983 22.718-4.37 3.424-3.285-9.722-3.285-9.722s2.509-1.186 3.626-8.78c.268-1.813-1.622-10.48 1.949-13.528"/>
                <path fill="#26546C" d="M169.612 85.668c-4.37 3.424-28.515 3.043-31.073-4.935-.953-2.967.567-4.366.567-4.366l27.221-.42s9.196 5.091 3.285 9.721"/>
            </g>
            <g>
                <path fill="#FFAED1" d="M160.32 41.94l3.188 9.651c.01 1.402-7.444 5.277-9.63 3.504-.638-.518-.458-1.86.144-3.313l3.591-7.917 2.707-1.925z"/>
                <path fill="#082534" d="M154.437 28.776c2.866 1.792 3.603 5.263 3.603 5.263s3.572.737 3.133 3.586c-.442 2.852-.554 7.772-4.46 7.776-3.905.005-5.449-3.556-5.449-3.556s-5.588-3.031-5.802-8.276c-.106-2.592 2.833-5.631 6.118-5.631.944 0 1.918.251 2.857.838"/>
                <path fill="#C96F96" d="M156.892 45.457c1.019-.181 2.017-.576 2.996-1.184.32 1.98-.23 3.587-1.65 4.818a6.283 6.283 0 0 1-3.69 1.534l2.344-5.168z"/>
                <path fill="#FFAED1" d="M157.437 37.91l2.232 5.423c.59 1.842-.436 3.81-2.322 4.43-1.506.495-2.499.558-4.475.45-1.643-.092-2.58-1.56-2.718-3.635-.174-2.692.454-5.22.866-6.555.944-3.04 4.693-3.544 6.417-.113"/>
                <path fill="#082534" d="M158.487 42.175c-.573 1.435-2.114.783-1.369-.6 1.497-2.78-.59-5.067-.59-5.067s1.887.947 2.633 1.513c.745.561-.1 2.716-.674 4.154z"/>
                <path fill="#FFAED1" d="M158.147 41.185c.052-.356.052-.716.03-1.076-.042-.685.052-1.71 1.086-1.275 1.504.633 1.53 4.29-.123 4.673-1.229.284-1.127-1.423-.993-2.322"/>
                <path fill="#FFF" d="M154.739 42.68c-1.139.22-1.272.405-3.106.295 0 0 .023 1.205.77 1.575.746.371 1.994-.408 2.336-1.87z"/>
                <path fill="#C96F96" d="M158.619 45.898c.366-.34.744-1.083 1.136-2.23.563 1.836-.61 3.794-2.411 4.41-1.438.495-2.386.56-4.272.45-.957-.057-1.663-.625-2.097-1.525.314.029.958-.355 1.484-.496 1.723-.466 3.216 2.122 6.16-.61z"/>
            </g>
            <g>
                <path fill="#082534" d="M122.4 83.749H89.122l-6.065-25.384h35.165z"/>
                <path fill="#1E1240" d="M122.085 83.75h17.728V81.83h-17.728z"/>
                <path fill="#1E1240" d="M123.607 83.749h-1.523l-4.064-25.384h1.458z"/>
                <path fill="#FFF" d="M102.717 67.695c.108.915-.547 1.658-1.463 1.658-.917 0-1.745-.743-1.853-1.658-.108-.915.547-1.658 1.462-1.658.916 0 1.746.743 1.854 1.658"/>
            </g>
        </g>
        <g fill="#021621">
            <path d="M63.656 171.207h4.817V88.069h-4.817zM213.902 172.245h4.818V89.107h-4.818z"/>
            <path d="M92.69 89.11h130.78v-5.36H92.69z"/>
            <path d="M58.738 89.11h130.78v-5.36H58.738z"/>
        </g>
    </g>
</svg>
