<svg xmlns="http://www.w3.org/2000/svg" xmlns:xlink="http://www.w3.org/1999/xlink" width="116" height="22" viewBox="0 0 116 22">
    <defs>
        <path id="a" d="M0 7.018V.068h21.988v13.901H0z"/>
    </defs>
    <g fill="none" fill-rule="evenodd">
        <path fill="#FFF" fill-rule="nonzero" d="M30 8.107h6.909V18h.05c2.728 0 4.94-2.151 4.94-4.806V8.107H49V4H30v4.107zM61.836 13.947h-4.579c-1.597 0-2.976-1.218-3.051-2.807a2.957 2.957 0 0 1 2.958-3.088h4.578c1.597 0 2.977 1.22 3.052 2.807a2.957 2.957 0 0 1-2.958 3.088M62.968 4h-6.936C52.164 4 49 7.15 49 11s3.164 7 7.032 7h6.936C66.835 18 70 14.85 70 11s-3.165-7-7.032-7M107.836 13.947h-4.578c-1.597 0-2.978-1.218-3.052-2.807a2.957 2.957 0 0 1 2.958-3.088h4.578c1.597 0 2.978 1.22 3.052 2.807a2.957 2.957 0 0 1-2.958 3.088M108.968 4h-6.936C98.164 4 95 7.15 95 11s3.164 7 7.032 7h6.936c3.868 0 7.032-3.15 7.032-7s-3.164-7-7.032-7M86.13 9.644c0 .678-.576 1.234-1.281 1.234h-6.487V8.385h6.487c.705 0 1.281.555 1.281 1.234v.025zm4.87.202c0-1.332-.566-2.543-1.479-3.423A5.114 5.114 0 0 0 85.968 5H73v13h5.178v-3.205h5.473L85.571 18H91l-2.328-4.072C90.068 13.064 91 11.555 91 9.846z"/>
        <path fill="#00ADD2" fill-rule="nonzero" d="M11 21.923v-5.847a.076.076 0 0 0-.122-.06c-2.901 2.151-6.203 4.113-9.834 5.839-.074.035-.049.145.033.145h9.846a.077.077 0 0 0 .077-.077"/>
        <g>
            <mask id="b" fill="#fff">
                <use xlink:href="#a"/>
            </mask>
            <path fill="#00ADD2" fill-rule="nonzero" d="M21.975.178c.034-.046 0-.11-.06-.11H7.577C3.392.068 0 3.266 0 7.21V13.9c0 .048.05.082.097.066C9.878 10.833 17.667 5.947 21.975.178" mask="url(#b)"/>
        </g>
        <path fill="#00ADD2" fill-rule="nonzero" d="M15 13.282v8.647c0 .039.033.071.074.071h.243C19.56 22 23 18.725 23 14.685V2.071c0-.08-.117-.099-.144-.023-1.437 3.986-4.128 7.772-7.833 11.183a.07.07 0 0 0-.023.05"/>
    </g>
</svg>
